<svg xmlns="http://www.w3.org/2000/svg" viewBox="0 0 512.027 512.027" width="16" height="16">
<g>
	<g>
		<circle style="fill:#FF9A9F;" cx="380.233" cy="111.71" r="104.21"/>
		<path style="fill:#ECEAEC;" d="M38.29,437.62L38.29,437.62c-25.044-25.044-25.044-65.648,0-90.692l90.692-90.692    c25.044-25.044,65.648-25.044,90.692,0l0,0c25.044,25.044,25.044,65.648,0,90.692l-90.692,90.692    C103.939,462.664,63.334,462.664,38.29,437.62z"/>
		<path style="fill:#DAD8DB;" d="M120.966,416.087c-25.044,25.044-65.648,25.044-90.692,0v0c-3.874-3.874-7.075-8.151-9.75-12.653    c2.202,12.52,8.095,24.517,17.766,34.187c25.044,25.044,65.648,25.044,90.692,0l90.692-90.692    c13.248-13.248,19.415-30.847,18.647-48.197L120.966,416.087z"/>
		<path style="fill:#A4CCFF;" d="M128.983,256.236l-45.346,45.346l90.692,90.692l45.346-45.346    c25.044-25.044,25.044-65.648,0-90.692S154.027,231.192,128.983,256.236z"/>
		<path style="fill:#8BB3EA;" d="M159.554,377.499l14.775,14.775l45.346-45.346c13.248-13.248,19.415-30.847,18.647-48.197    L159.554,377.499z"/>
		<path style="fill:#FF8086;" d="M396.266,199.887c-57.553,0-104.21-46.656-104.21-104.21c0-24.691,8.631-47.34,22.981-65.197    c-23.766,19.1-39.013,48.366-39.013,81.229c0,57.553,46.656,104.21,104.21,104.21c32.863,0,62.129-15.247,81.229-39.013    C443.606,191.256,420.956,199.887,396.266,199.887z"/>
		<circle style="fill:#CCF49F;" cx="115.701" cy="103.694" r="56.113"/>
		
			<ellipse transform="matrix(0.7071 -0.7071 0.7071 0.7071 -175.7853 407.3549)" style="fill:#FFE07D;" cx="403.828" cy="415.869" rx="64.129" ry="107.673"/>
		<path style="fill:#FFD064;" d="M485.977,469.961c-25.045,25.044-79.434,11.259-121.483-30.79    c-28.938-28.938-44.485-63.718-43.208-90.758c-15.403,27.488-0.529,75.078,37.195,112.802    c42.048,42.049,96.438,55.834,121.483,30.79c7.809-7.809,11.838-18.473,12.417-30.725    C490.616,464.431,488.553,467.385,485.977,469.961z"/>
		<path style="fill:#B3E59F;" d="M131.733,143.774c-30.99,0-56.113-25.123-56.113-56.113c0-11.394,3.417-21.978,9.252-30.829    c-15.223,10.035-25.284,27.264-25.284,46.861c0,30.99,25.123,56.113,56.113,56.113c19.597,0,36.826-10.061,46.861-25.284    C153.711,140.357,143.126,143.774,131.733,143.774z"/>
	</g>
	<g>
		<path d="M123.68,250.933l-90.692,90.692c-27.928,27.928-27.928,73.37,0,101.298c13.964,13.964,32.307,20.946,50.649,20.946    s36.686-6.982,50.649-20.946l90.692-90.692c27.928-27.928,27.928-73.371,0-101.299C197.05,223.004,151.607,223.005,123.68,250.933    z M214.371,341.625l-40.043,40.043l-51.378-51.378c-2.929-2.929-7.678-2.929-10.606,0c-2.929,2.929-2.929,7.678,0,10.606    l51.378,51.378l-40.043,40.043c-10.696,10.696-24.917,16.586-40.043,16.586s-29.347-5.891-40.043-16.586    S27.008,407.4,27.008,392.274c0-15.126,5.89-29.347,16.586-40.043l40.043-40.043l6.034,6.034c1.464,1.464,3.384,2.197,5.303,2.197    s3.839-0.732,5.303-2.197c2.929-2.929,2.929-7.678,0-10.606l-6.034-6.034l40.043-40.043    c10.696-10.696,24.917-16.586,40.043-16.586c15.126,0,29.347,5.89,40.042,16.586s16.586,24.917,16.586,40.043    S225.067,330.929,214.371,341.625z"/>
		<path d="M491.943,111.709C491.943,50.113,441.83,0,380.233,0S268.524,50.113,268.524,111.709    c0,61.597,50.113,111.71,111.709,111.71S491.943,173.307,491.943,111.709z M283.524,111.709c0-53.326,43.384-96.709,96.709-96.709    s96.709,43.384,96.709,96.709c0,53.326-43.384,96.71-96.709,96.71S283.524,165.036,283.524,111.709z"/>
		<path d="M496.999,435.798c-6.143-24.235-21.244-49.301-42.522-70.579c-16.768-16.768-35.934-29.755-55.425-37.557    c-3.845-1.539-8.211,0.33-9.75,4.176s0.331,8.211,4.176,9.75c17.623,7.054,35.048,18.893,50.393,34.237    c19.396,19.396,33.1,42.003,38.588,63.658c5.14,20.28,2.371,37.049-7.798,47.218s-26.938,12.938-47.219,7.798    c-21.654-5.488-44.262-19.192-63.657-38.588s-33.1-42.003-38.588-63.658c-5.14-20.28-2.371-37.049,7.798-47.218    c7.2-7.2,17.898-10.751,30.923-10.252c4.16,0.138,7.622-3.072,7.778-7.211c0.157-4.139-3.072-7.622-7.211-7.778    c-17.316-0.652-31.868,4.406-42.097,14.635c-14.056,14.056-18.223,35.901-11.731,61.51c6.143,24.235,21.244,49.3,42.522,70.579    c21.278,21.278,46.343,36.379,70.579,42.522c7.887,1.999,15.415,2.987,22.47,2.987c15.854,0,29.313-4.992,39.04-14.719    C499.324,483.252,503.49,461.408,496.999,435.798z"/>
		<path d="M115.701,167.307c35.076,0,63.613-28.537,63.613-63.613c0-11.271-2.989-22.349-8.644-32.033    c-2.088-3.577-6.682-4.784-10.258-2.695c-3.577,2.088-4.784,6.681-2.695,10.258c4.315,7.391,6.597,15.853,6.597,24.469    c0,26.806-21.808,48.613-48.613,48.613s-48.613-21.808-48.613-48.613c0-26.805,21.808-48.613,48.613-48.613    c6.658,0,13.105,1.319,19.165,3.921c3.805,1.635,8.217-0.125,9.851-3.932c1.635-3.806-0.125-8.216-3.932-9.851    c-7.939-3.41-16.379-5.139-25.083-5.139c-35.076,0-63.613,28.537-63.613,63.613C52.088,138.77,80.625,167.307,115.701,167.307z"/>
		<path d="M340.192,117.743c-2.929-2.928-7.678-2.929-10.607,0c-2.929,2.929-2.929,7.678,0,10.607l5.668,5.668    c1.465,1.464,3.384,2.197,5.304,2.197c1.919,0,3.839-0.732,5.303-2.196c2.929-2.929,2.929-7.678,0-10.607L340.192,117.743z"/>
		<path d="M391.935,77.335c1.464,1.464,3.384,2.197,5.303,2.197s3.839-0.732,5.303-2.197c2.929-2.929,2.929-7.678,0-10.606    l-5.668-5.668c-2.929-2.929-7.678-2.929-10.606,0c-2.929,2.929-2.929,7.678,0,10.606L391.935,77.335z"/>
		<path d="M438.747,105.985c-0.031-4.123-3.383-7.443-7.499-7.443c-0.019,0-0.038,0-0.058,0c-4.142,0.031-7.474,3.415-7.443,7.557    c0.093,12.306-5.304,24.814-14.808,34.318s-21.991,14.936-34.319,14.808c-4.18-0.004-7.524,3.302-7.556,7.444    c-0.031,4.142,3.302,7.525,7.444,7.556c0.14,0.001,0.279,0.001,0.419,0.001c16.159,0,32.399-6.984,44.618-19.203    C431.871,138.697,438.87,122.282,438.747,105.985z"/>
	</g>
</g>















</svg>
