<svg >
  <symbol id="home" viewBox="0 0 36 32" xmlns="http://www.w3.org/2000/svg">
    <path fill-rule="evenodd" clip-rule="evenodd" d="M19.414 0.913912C18.633 0.132864 17.3666 0.132862 16.5856 0.913911L1.41401 16.0855C0.154085 17.3454 1.04642 19.4997 2.82823 19.4997H3.00029V29.9997C3.00029 31.1043 3.89572 31.9997 5.00029 31.9997H13.001C14.1056 31.9997 15.001 31.1043 15.001 29.9997V24.0007C15.001 22.8961 15.8965 22.0007 17.001 22.0007H19.001C20.1056 22.0007 21.001 22.8961 21.001 24.0007V29.9997C21.001 31.1043 21.8965 31.9997 23.001 31.9997H31.0003C32.1049 31.9997 33.0003 31.1043 33.0003 29.9997V19.4997H33.1714C34.9532 19.4997 35.8455 17.3454 34.5856 16.0855L19.414 0.913912Z" />
  </symbol>
  <symbol id="refresh" viewBox="0 0 286.052 286.052" xmlns="http://www.w3.org/2000/svg">
    <path d="M78.493,143.181H62.832v-0.125c0-43.623,34.809-80.328,79.201-80.122
		  c21.642,0.098,41.523,8.841,55.691,23.135l25.843-24.931c-20.864-21.043-49.693-34.049-81.534-34.049
		  c-63.629,0-115.208,51.955-115.298,116.075h-15.84c-9.708,0-13.677,6.49-8.823,14.437l33.799,33.504
		  c6.704,6.704,10.736,6.91,17.646,0l33.799-33.504C92.17,149.662,88.192,143.181,78.493,143.181z M283.978,129.236l-33.799-33.433
		  c-6.892-6.892-11.156-6.481-17.637,0l-33.799,33.433c-4.854,7.929-0.894,14.419,8.814,14.419h15.635
		  c-0.25,43.337-34.943,79.72-79.183,79.514c-21.633-0.089-41.505-8.814-55.691-23.099l-25.843,24.896
		  c20.873,21.007,49.702,33.996,81.534,33.996c63.432,0,114.869-51.579,115.28-115.298h15.867
		  C284.872,143.655,288.832,137.156,283.978,129.236z"/>
  </symbol>
</svg>
